<svg width="150" height="68" viewBox="0 0 150 68" fill="none" xmlns="http://www.w3.org/2000/svg">
<g clip-path="url(#clip0_652_254)">
<path d="M105.673 23.0538L107.02 18.3201C106.224 18.8821 105.46 19.4846 104.73 20.1261L105.603 23.0538H105.673Z" fill="#FE330A"/>
<path d="M117.093 23.0538L119.948 13.4793C118.107 13.665 116.321 14.0332 114.607 14.5669L117.022 23.0538H117.093Z" fill="#FE330A"/>
<path d="M141.162 20.5365V25.6578H138.948V18.7037C135.961 16.4848 132.504 14.8694 128.755 14.0203C128.705 14.3601 128.661 14.7031 128.652 15.0648V25.6587H126.438V13.6002C125.22 13.4331 123.978 13.3398 122.713 13.3398C122.542 13.3398 122.373 13.3496 122.203 13.3528L118.251 25.6587H115.826L112.776 15.2181C111.622 15.6706 110.506 16.1969 109.435 16.7954L106.866 25.6587H104.441L103.147 21.6305C98.3721 26.5524 95.4274 33.2657 95.4274 40.6707C95.4274 55.7647 107.643 68.0008 122.712 68.0008C137.782 68.0008 149.998 55.7647 149.998 40.6707C149.998 32.7028 146.591 25.533 141.16 20.5373L141.162 20.5365Z" fill="#FE330A"/>
<path d="M97.1333 16.5773C97.1333 15.2635 96.9455 14.0259 96.5706 12.8646C96.1957 11.7033 95.6452 10.6879 94.9197 9.82018C94.1935 8.95243 93.2972 8.25985 92.2317 7.74325C91.1654 7.22747 89.9412 6.96877 88.5591 6.96877C87.1771 6.96877 85.9529 7.22747 84.8874 7.74325C83.8219 8.25985 82.9256 8.95243 82.1994 9.82018C81.4731 10.6887 80.9217 11.7033 80.5477 12.8646C80.1736 14.0259 79.9866 15.2643 79.9866 16.5773C79.9866 17.8903 80.1736 19.1286 80.5477 20.2899C80.9226 21.4521 81.4731 22.4666 82.1994 23.3344C82.9256 24.2029 83.8219 24.889 84.8874 25.3935C85.9529 25.8979 87.1771 26.1501 88.5591 26.1501C89.9412 26.1501 91.1654 25.8979 92.2317 25.3935C93.2972 24.889 94.1935 24.2029 94.9197 23.3344C95.6452 22.4666 96.1957 21.4513 96.5706 20.2899C96.9455 19.1286 97.1333 17.8911 97.1333 16.5773ZM94.5157 19.4108C94.2461 20.3386 93.8478 21.165 93.3215 21.8925C92.7944 22.6199 92.1321 23.2071 91.3362 23.6523C90.5395 24.0983 89.6141 24.3205 88.5599 24.3205C87.5058 24.3205 86.5804 24.0983 85.7845 23.6523C84.9878 23.2062 84.3263 22.6199 83.7992 21.8925C83.2721 21.165 82.8738 20.3386 82.605 19.4108C82.3354 18.4839 82.201 17.5399 82.201 16.5773C82.201 15.6146 82.3354 14.6715 82.605 13.7437C82.8738 12.8168 83.2721 11.9896 83.7992 11.2621C84.3263 10.5347 84.9878 9.94831 85.7845 9.50227C86.5804 9.05704 87.5066 8.83321 88.5599 8.83321C89.6133 8.83321 90.5395 9.05623 91.3362 9.50227C92.1321 9.94831 92.7944 10.5347 93.3215 11.2621C93.8478 11.9896 94.2461 12.8168 94.5157 13.7437C94.7845 14.6707 94.9197 15.6146 94.9197 16.5773C94.9197 17.5399 94.7845 18.4839 94.5157 19.4108Z" fill="#FE330A"/>
<path d="M124.085 7.49672H121.73L119.947 13.4785C120.69 13.4039 121.445 13.3658 122.204 13.352L124.085 7.49672Z" fill="#FE330A"/>
<path d="M17.7054 14.518C17.1079 14.0136 16.4165 13.591 15.6319 13.2512C14.8465 12.9114 14.0094 12.6235 13.1196 12.3892L7.00593 10.8751C6.49019 10.7583 6.0044 10.6058 5.54776 10.4177C5.09112 10.2303 4.6871 9.9838 4.33491 9.67806C3.98352 9.37313 3.70743 9.00413 3.50907 8.56945C3.30989 8.13557 3.2095 7.62546 3.2095 7.03831C3.2095 6.10001 3.386 5.31336 3.73658 4.67998C4.08796 4.0466 4.55027 3.53649 5.12512 3.14885C5.69835 2.76201 6.36631 2.47979 7.12738 2.3038C7.88764 2.12782 8.67947 2.04023 9.49883 2.04023C10.3894 2.04023 11.2388 2.1635 12.0468 2.41004C12.8548 2.65658 13.5689 3.0199 14.1899 3.50081C14.8101 3.98172 15.3145 4.58104 15.7015 5.29551C16.0877 6.01161 16.3039 6.85017 16.3517 7.81199H18.7401C18.7401 6.52172 18.4883 5.38959 17.9855 4.4156C17.4811 3.44242 16.8083 2.62657 15.9647 1.96968C15.121 1.31359 14.1373 0.820517 13.0135 0.491259C11.8889 0.163622 10.706 -0.00100708 9.46402 -0.00100708C7.70709 -0.00100708 6.26672 0.251208 5.14212 0.755639C4.01753 1.26088 3.13258 1.87642 2.48972 2.60387C1.84524 3.33132 1.40561 4.1058 1.17162 4.92652C0.936821 5.74804 0.821041 6.46333 0.821041 7.074C0.821041 8.05934 0.978922 8.89222 1.29468 9.57263C1.61126 10.253 2.0266 10.828 2.54235 11.2976C3.05728 11.7671 3.66047 12.1418 4.35272 12.424C5.04254 12.7055 5.75179 12.9406 6.47804 13.128L12.0646 14.5002C12.65 14.6413 13.2475 14.8229 13.8564 15.0459C14.4652 15.269 15.0222 15.5561 15.525 15.908C16.0294 16.26 16.4391 16.6947 16.7557 17.2105C17.0715 17.7271 17.2293 18.3369 17.2293 19.0408C17.2293 19.9556 17.0067 20.7366 16.5622 21.3813C16.1169 22.0269 15.5607 22.5548 14.8935 22.9652C14.2256 23.3755 13.5058 23.6748 12.7326 23.8629C11.9593 24.0511 11.2444 24.1443 10.5886 24.1443C9.44135 24.1443 8.3629 24.0332 7.3557 23.8094C6.3485 23.5872 5.4757 23.2174 4.73811 22.7008C4.00052 22.185 3.42082 21.4924 2.99818 20.6239C2.57716 19.7561 2.37799 18.6767 2.40147 17.3856H0.0138233C-0.056616 18.9346 0.148225 20.2597 0.628345 21.3627C1.10766 22.4656 1.79343 23.3691 2.68404 24.073C3.57303 24.7769 4.65148 25.2992 5.91615 25.639C7.18082 25.9788 8.55155 26.1491 10.0275 26.1491C11.5035 26.1491 12.7682 26.0137 13.8223 25.7444C14.8765 25.4752 15.7615 25.1232 16.4764 24.6885C17.1905 24.2555 17.7524 23.7681 18.1629 23.2279C18.5725 22.6886 18.8891 22.1542 19.111 21.6263C19.3336 21.0983 19.4745 20.6004 19.5336 20.1308C19.5919 19.6612 19.621 19.2858 19.621 19.0043C19.621 17.972 19.4502 17.0921 19.111 16.3646C18.7717 15.6372 18.3037 15.0216 17.7062 14.5164L17.7054 14.518Z" fill="#FE330A"/>
<path d="M35.4674 17.0355C35.4674 17.9503 35.3621 18.848 35.1516 19.7279C34.9403 20.6079 34.6124 21.388 34.1671 22.0684C33.7218 22.7489 33.1599 23.2946 32.4806 23.705C31.8013 24.1162 30.9811 24.3205 30.0201 24.3205C28.2631 24.3205 27.0276 23.8988 26.3135 23.0538C25.5986 22.2095 25.2181 20.9655 25.1719 19.3233V7.49753H22.9583V19.2884C22.9583 20.3686 23.0749 21.3296 23.3089 22.1747C23.5437 23.0189 23.9121 23.735 24.4165 24.3213C24.9201 24.9085 25.5759 25.3594 26.384 25.6765C27.192 25.9928 28.17 26.1517 29.3181 26.1517C30.6767 26.1517 31.913 25.829 33.0247 25.1842C34.1371 24.5387 34.9865 23.6069 35.5726 22.3855H35.6431V25.6587H37.681V7.49672H35.4666L35.4674 17.0355Z" fill="#FE330A"/>
<path d="M55.145 8.85186C54.6293 8.25336 53.9443 7.79029 53.0893 7.46184C52.2344 7.13339 51.1745 6.96877 49.9099 6.96877C48.6209 6.96877 47.438 7.3037 46.3612 7.97195C45.2827 8.64101 44.5338 9.5266 44.112 10.6287H44.0424V7.4959H41.828V25.657H44.0424V15.0632C44.065 14.1711 44.2124 13.3447 44.4812 12.5816C44.7508 11.8192 45.1257 11.1624 45.6058 10.6101C46.0859 10.0594 46.6713 9.62473 47.3627 9.30764C48.0542 8.99135 48.8444 8.8324 49.735 8.8324C50.6256 8.8324 51.3688 8.97351 51.9656 9.25492C52.5631 9.53633 53.0375 9.92398 53.3889 10.4162C53.7403 10.9085 53.9864 11.4892 54.1273 12.1582C54.2674 12.8273 54.3378 13.5491 54.3378 14.3227V25.6554H56.5514V13.97C56.5514 12.8914 56.4461 11.9174 56.2348 11.0488C56.0243 10.1811 55.6608 9.44712 55.1467 8.84943L55.145 8.85186Z" fill="#FE330A"/>
<path d="M74.4697 10.9466H74.4001C74.1653 10.2897 73.8317 9.71476 73.3985 9.22168C72.9654 8.7286 72.4674 8.31257 71.9047 7.97277C71.3436 7.63297 70.7388 7.37994 70.096 7.21612C69.4515 7.0523 68.79 6.96958 68.1107 6.96958C66.7287 6.96958 65.5288 7.22828 64.5086 7.74407C63.4893 8.26066 62.6407 8.95892 61.9615 9.83802C61.2822 10.7179 60.7786 11.739 60.4507 12.9003C60.1219 14.0616 59.9592 15.2878 59.9592 16.5781C59.9592 17.8684 60.1219 19.0946 60.4507 20.2559C60.7786 21.4172 61.2822 22.4382 61.9615 23.3182C62.6399 24.1981 63.4893 24.8907 64.5086 25.3951C65.5288 25.8995 66.7287 26.1517 68.1107 26.1517C68.7665 26.1517 69.428 26.0577 70.096 25.8703C70.7631 25.6822 71.3898 25.4194 71.976 25.078C72.5614 24.7382 73.0828 24.3213 73.5402 23.8291C73.9969 23.3368 74.3418 22.7967 74.5766 22.2104H74.647V25.6595H76.6849V0.527954H74.4705L74.4697 10.9466ZM74.1361 19.376C73.9135 20.3029 73.5507 21.1301 73.0463 21.8568C72.5427 22.5842 71.8869 23.1771 71.0789 23.6344C70.2709 24.0918 69.2815 24.3205 68.1099 24.3205C67.0558 24.3205 66.1538 24.0918 65.4049 23.6344C64.6543 23.1762 64.0398 22.5842 63.5597 21.8568C63.0796 21.1293 62.7282 20.3029 62.5055 19.376C62.2829 18.449 62.172 17.5164 62.172 16.5773C62.172 15.6382 62.2829 14.7063 62.5055 13.7794C62.7282 12.8524 63.0796 12.0252 63.5597 11.2978C64.0398 10.5703 64.6551 9.97751 65.4049 9.52012C66.1538 9.06191 67.0558 8.83403 68.1099 8.83403C69.2815 8.83403 70.2709 9.06273 71.0789 9.52012C71.8869 9.97751 72.5427 10.5703 73.0463 11.2978C73.5507 12.0252 73.9127 12.8524 74.1361 13.7794C74.358 14.7063 74.4697 15.639 74.4697 16.5773C74.4697 17.5156 74.358 18.4482 74.1361 19.376Z" fill="#FE330A"/>
<path d="M104.729 20.1253L100.965 7.49672H98.6101L103.149 21.6297C103.656 21.1074 104.183 20.6062 104.729 20.1253Z" fill="#FE330A"/>
<path d="M129.092 12.5824C129.36 11.8201 129.736 11.1632 130.216 10.6109C130.696 10.0602 131.282 9.62555 131.973 9.30845C132.663 8.99217 133.455 8.83322 134.345 8.83322C135.234 8.83322 135.979 8.97433 136.576 9.25574C137.174 9.53715 137.647 9.9248 137.999 10.4171C138.352 10.9093 138.597 11.49 138.737 12.1591C138.878 12.8281 138.948 13.5499 138.948 14.3236V18.7021C139.718 19.2746 140.457 19.8861 141.162 20.5349V13.9708C141.162 12.8922 141.056 11.9182 140.845 11.0496C140.635 10.1819 140.27 9.44794 139.756 8.85025C139.24 8.25174 138.555 7.78867 137.701 7.46023C136.845 7.13178 135.786 6.96715 134.52 6.96715C133.231 6.96715 132.048 7.30208 130.971 7.97033C129.892 8.63939 129.143 9.52498 128.722 10.6271H128.652V7.49429H126.438V13.5969C127.222 13.704 127.994 13.8451 128.755 14.0178C128.828 13.5183 128.931 13.0341 129.091 12.5808L129.092 12.5824Z" fill="#FE330A"/>
<path d="M111.295 10.383H111.364L112.776 15.2173C113.377 14.9821 113.985 14.7599 114.606 14.566L112.594 7.49672H110.099L107.018 18.3201C107.796 17.771 108.601 17.2609 109.436 16.7946L111.295 10.383Z" fill="#FE330A"/>
<path d="M117.093 23.0538L119.948 13.4793C118.107 13.665 116.321 14.0332 114.607 14.5669L117.022 23.0538H117.093Z" fill="#FE330A"/>
<path d="M105.673 23.0538L107.02 18.3201C106.224 18.8821 105.46 19.4846 104.73 20.1261L105.603 23.0538H105.673Z" fill="#FE330A"/>
<path d="M141.162 20.5365V25.6578H138.948V18.7037C135.961 16.4848 132.504 14.8694 128.755 14.0203C128.705 14.3601 128.661 14.7031 128.652 15.0648V25.6587H126.438V13.6002C125.22 13.4331 123.978 13.3398 122.713 13.3398C122.542 13.3398 122.373 13.3496 122.203 13.3528L118.251 25.6587H115.826L112.776 15.2181C111.622 15.6706 110.506 16.1969 109.435 16.7954L106.866 25.6587H104.441L103.147 21.6305C98.3721 26.5524 95.4274 33.2657 95.4274 40.6707C95.4274 55.7647 107.643 68.0008 122.712 68.0008C137.782 68.0008 149.998 55.7647 149.998 40.6707C149.998 32.7028 146.591 25.533 141.16 20.5373L141.162 20.5365Z" fill="#FE330A"/>
<path d="M6.64073 51.7942C6.94515 52.3805 7.34917 52.8557 7.85358 53.2199C8.35718 53.584 8.94903 53.8532 9.62832 54.0292C10.3068 54.2052 11.0104 54.2928 11.7366 54.2928C12.2281 54.2928 12.756 54.2514 13.3171 54.1695C13.8798 54.0876 14.4069 53.9287 14.8983 53.6943C15.3898 53.4607 15.8003 53.138 16.129 52.7268C16.4561 52.3164 16.6204 51.7942 16.6204 51.16C16.6204 50.4804 16.4034 49.9281 15.9703 49.5064C15.5363 49.083 14.9688 48.7319 14.266 48.4505C13.5632 48.1691 12.7665 47.9225 11.8767 47.7109C10.9861 47.5 10.085 47.2656 9.17168 47.0069C8.23411 46.7734 7.32083 46.4855 6.43022 46.1449C5.53961 45.8051 4.74372 45.3647 4.04095 44.8254C3.33818 44.2861 2.77061 43.6105 2.33664 42.8012C1.90267 41.9918 1.6865 41.0122 1.6865 39.8622C1.6865 38.5711 1.96178 37.4511 2.51315 36.5007C3.0629 35.551 3.78348 34.7595 4.67409 34.1253C5.5647 33.4911 6.57191 33.0224 7.69569 32.7174C8.82029 32.4125 9.94489 32.26 11.0687 32.26C12.3803 32.26 13.6393 32.4068 14.8465 32.7004C16.0529 32.9948 17.1248 33.4692 18.0616 34.1261C18.9984 34.783 19.7424 35.6224 20.293 36.6426C20.8427 37.6636 21.1188 38.9004 21.1188 40.3553H15.7784C15.7306 39.6051 15.5736 38.9823 15.3039 38.49C15.0343 37.9977 14.6765 37.6101 14.2328 37.3287C13.7875 37.0473 13.2774 36.8478 12.7042 36.7302C12.1309 36.6126 11.5043 36.5542 10.8242 36.5542C10.3789 36.5542 9.93356 36.6012 9.48906 36.6945C9.04376 36.7894 8.63974 36.9532 8.27621 37.1868C7.91268 37.4219 7.61473 37.7147 7.37993 38.0667C7.14513 38.4178 7.02936 38.8647 7.02936 39.404C7.02936 39.8962 7.12247 40.2961 7.3103 40.6002C7.49733 40.9059 7.86572 41.1873 8.41709 41.4452C8.96684 41.7031 9.72872 41.9618 10.7011 42.2197C11.6735 42.4776 12.9438 42.806 14.5137 43.2051C14.9817 43.2983 15.6319 43.4686 16.4642 43.7152C17.2957 43.9617 18.1207 44.355 18.9417 44.8943C19.761 45.4344 20.4695 46.1562 21.067 47.0588C21.6645 47.9631 21.9633 49.1179 21.9633 50.5266C21.9633 51.6758 21.7406 52.7438 21.2961 53.7292C20.85 54.7145 20.1885 55.5652 19.3109 56.2813C18.4324 56.9974 17.3426 57.5537 16.0423 57.9528C14.742 58.3509 13.2369 58.5513 11.5269 58.5513C10.1449 58.5513 8.80329 58.3801 7.50381 58.0403C6.20433 57.7005 5.05625 57.1669 4.06119 56.4395C3.06533 55.712 2.2743 54.7851 1.68893 53.6586C1.10355 52.533 0.822605 51.1957 0.846085 49.6467H6.18651C6.18651 50.4917 6.33873 51.2078 6.64315 51.7942H6.64073Z" fill="#0B0500"/>
<path d="M34.6812 39.7916V43.1353H31.0265V52.1453C31.0265 52.9904 31.1674 53.5532 31.4491 53.8354C31.7293 54.1168 32.292 54.2571 33.1356 54.2571C33.4166 54.2571 33.6854 54.2458 33.9436 54.2214C34.2011 54.1987 34.4472 54.163 34.6812 54.116V57.9876C34.2602 58.0574 33.7906 58.1044 33.2757 58.1279C32.7607 58.1506 32.2563 58.1636 31.7649 58.1636C30.9917 58.1636 30.2597 58.1109 29.5691 58.0055C28.8777 57.9 28.2688 57.6949 27.7417 57.3899C27.2147 57.085 26.7993 56.6511 26.4949 56.0875C26.1897 55.5239 26.0374 54.7851 26.0374 53.8703V43.1353H23.0158V39.7916H26.0374V34.3362H31.0273V39.7916H34.6812Z" fill="#0B0500"/>
<path d="M49.3682 57.9884V55.4541H49.2622C48.6298 56.5092 47.8096 57.2723 46.8033 57.7419C45.7961 58.2106 44.7654 58.4458 43.7112 58.4458C42.3761 58.4458 41.2807 58.2698 40.4257 57.9179C39.5707 57.5659 38.8979 57.068 38.4048 56.4216C37.9133 55.7769 37.5676 54.991 37.3684 54.0633C37.1693 53.1371 37.0705 52.1096 37.0705 50.984V39.7916H42.0595V50.0684C42.0595 51.5703 42.2943 52.6911 42.7631 53.4299C43.2311 54.1687 44.0634 54.5385 45.2576 54.5385C46.6162 54.5385 47.5999 54.1338 48.2096 53.3237C48.8177 52.5143 49.1229 51.1835 49.1229 49.3288V39.7908H54.1127V57.9876H49.369L49.3682 57.9884Z" fill="#0B0500"/>
<path d="M70.8028 55.6658C70.2166 56.6511 69.449 57.3615 68.501 57.7946C67.5529 58.2277 66.4801 58.4458 65.2858 58.4458C63.9264 58.4458 62.7322 58.1823 61.7015 57.6543C60.67 57.1264 59.8215 56.4103 59.1536 55.5068C58.4864 54.6034 57.982 53.5661 57.6428 52.3918C57.3035 51.2192 57.1335 49.9994 57.1335 48.7319C57.1335 47.5114 57.3035 46.3322 57.6428 45.1944C57.982 44.0566 58.4864 43.0526 59.1536 42.1848C59.8215 41.3171 60.6587 40.618 61.6659 40.0901C62.6723 39.5621 63.8447 39.2985 65.1806 39.2985C66.2574 39.2985 67.2824 39.5281 68.2548 39.9846C69.2272 40.4412 69.9947 41.1168 70.5566 42.008H70.6263V32.8577H75.6161V57.9876H70.8724V55.665L70.8028 55.6658ZM70.5923 46.6728C70.4514 45.9802 70.2109 45.3704 69.8717 44.8424C69.5316 44.3145 69.0928 43.8871 68.5536 43.5586C68.0152 43.2302 67.3351 43.0647 66.5157 43.0647C65.6963 43.0647 65.0049 43.2302 64.4422 43.5586C63.8811 43.8871 63.4293 44.3201 63.0893 44.8603C62.75 45.4004 62.5039 46.0167 62.3517 46.7085C62.1995 47.4003 62.1226 48.1228 62.1226 48.873C62.1226 49.5769 62.2043 50.2809 62.3687 50.9848C62.533 51.6887 62.797 52.3164 63.1597 52.8679C63.5232 53.4194 63.9791 53.8654 64.5304 54.2052C65.0802 54.545 65.7417 54.7153 66.5149 54.7153C67.3343 54.7153 68.02 54.5523 68.5706 54.223C69.1203 53.8946 69.56 53.455 69.8879 52.9036C70.2158 52.3529 70.4506 51.7244 70.5915 51.0205C70.7315 50.3157 70.802 49.5891 70.802 48.8381C70.802 48.0872 70.7315 47.3662 70.5915 46.6736L70.5923 46.6728Z" fill="#0B0500"/>
<path d="M79.5162 36.9767V32.8586H84.5061V36.9767H79.5162ZM84.5061 39.7924V57.9892H79.5162V39.7924H84.5061Z" fill="#0B0500"/>
<path d="M88.5462 44.9487C88.9915 43.7638 89.623 42.755 90.444 41.9213C91.2634 41.0884 92.2471 40.4437 93.3952 39.9863C94.5432 39.5289 95.8314 39.3002 97.2612 39.3002C98.6911 39.3002 99.9833 39.5297 101.143 39.9863C102.304 40.4428 103.292 41.0892 104.112 41.9213C104.932 42.755 105.565 43.7638 106.01 44.9487C106.455 46.1335 106.677 47.453 106.677 48.9079C106.677 50.3628 106.455 51.6766 106.01 52.8501C105.565 54.0235 104.932 55.0259 104.112 55.8588C103.291 56.6925 102.304 57.3324 101.143 57.7776C99.9833 58.2228 98.6886 58.4458 97.2612 58.4458C95.8338 58.4458 94.5424 58.2228 93.3952 57.7776C92.2479 57.3315 91.2642 56.6917 90.444 55.8588C89.623 55.0259 88.9915 54.0235 88.5462 52.8501C88.1009 51.6766 87.879 50.3628 87.879 48.9079C87.879 47.453 88.1009 46.1335 88.5462 44.9487ZM93.0794 51.0375C93.2195 51.7301 93.4599 52.3521 93.7992 52.9028C94.1384 53.4542 94.5902 53.8938 95.1529 54.2222C95.7156 54.5515 96.4176 54.7145 97.2612 54.7145C98.1049 54.7145 98.8117 54.5515 99.3865 54.2222C99.9606 53.8938 100.417 53.4542 100.756 52.9028C101.096 52.3521 101.337 51.7293 101.477 51.0375C101.618 50.3466 101.688 49.6361 101.688 48.9087C101.688 48.1812 101.618 47.4651 101.477 46.7612C101.337 46.0573 101.096 45.4361 100.756 44.8959C100.417 44.3566 99.9606 43.9163 99.3865 43.5765C98.8117 43.2367 98.1033 43.0656 97.2612 43.0656C96.4192 43.0656 95.7148 43.2367 95.1529 43.5765C94.591 43.9163 94.1384 44.3566 93.7992 44.8959C93.4599 45.4361 93.2195 46.0581 93.0794 46.7612C92.9385 47.4651 92.8689 48.1812 92.8689 48.9087C92.8689 49.6361 92.9385 50.3466 93.0794 51.0375Z" fill="#0B0500"/>
</g>
<defs>
<clipPath id="clip0_652_254">
<rect width="150" height="68" fill="white"/>
</clipPath>
</defs>
</svg>
